<svg width="238" height="196" viewBox="0 0 238 196" fill="none" xmlns="http://www.w3.org/2000/svg">
<g clip-path="url(#clip0_1_2)">
<path d="M157.001 3L224 94.047H202.389L145.479 15.234L157.001 3ZM116.075 13.889L32.256 100.687H56.249L146.516 4.553L116.075 13.889ZM197.302 98.407V137.293C162.864 137.474 123.194 140.567 90.942 152.33V104.002C90.942 102.269 89.355 100.687 87.617 100.687H65.283L140.9 20.108L197.302 98.407ZM167.396 67.501C167.396 65.764 165.804 64.182 164.066 64.182C152.802 64.182 141.411 64.182 130.202 64.182C128.685 64.478 127.474 65.953 127.502 67.501V113.961C127.502 115.694 129.093 117.276 130.831 117.276H164.066C165.804 117.276 167.396 115.694 167.396 113.961V67.501ZM134.148 87.412H144.127V70.821H134.148V87.412ZM150.77 87.412H160.739V70.821H150.77V87.412ZM134.148 110.644H144.127V94.047H134.148V110.644ZM150.77 110.644H160.739V94.047H150.77V110.644ZM61.025 141.542L84.292 151.813V107.322H61.025V141.542Z" fill="#8F8C44"/>
<path d="M215.372 148.797C141.872 144.46 91.49 162.892 31.733 189.662L4 164.879C19.929 158.461 39.853 150.314 57.288 147.244L86.266 160.106C87.085 160.449 88.047 160.449 88.865 160.106C121.361 147.131 164.269 143.822 200.632 143.822C200.631 143.785 210.702 146.966 215.372 148.797Z" fill="#F8B3B3"/>
</g>
<defs>
<clipPath id="clip0_1_2">
<rect width="220" height="186.662" fill="white" transform="translate(4 3)"/>
</clipPath>
</defs>
</svg>
