<svg width="272" height="131" viewBox="0 0 272 131" fill="none" xmlns="http://www.w3.org/2000/svg">
<path d="M23.0455 95V36.8182H30.0909V62.7273H61.1136V36.8182H68.1591V95H61.1136V68.9773H30.0909V95H23.0455ZM131.355 65.9091C131.355 72.0455 130.247 77.3485 128.031 81.8182C125.815 86.2879 122.776 89.7348 118.912 92.1591C115.048 94.5833 110.635 95.7955 105.673 95.7955C100.711 95.7955 96.2983 94.5833 92.4347 92.1591C88.571 89.7348 85.5313 86.2879 83.3153 81.8182C81.0994 77.3485 79.9915 72.0455 79.9915 65.9091C79.9915 59.7727 81.0994 54.4697 83.3153 50C85.5313 45.5303 88.571 42.0833 92.4347 39.6591C96.2983 37.2348 100.711 36.0227 105.673 36.0227C110.635 36.0227 115.048 37.2348 118.912 39.6591C122.776 42.0833 125.815 45.5303 128.031 50C130.247 54.4697 131.355 59.7727 131.355 65.9091ZM124.537 65.9091C124.537 60.8712 123.694 56.6193 122.009 53.1534C120.342 49.6875 118.079 47.0644 115.219 45.2841C112.378 43.5038 109.196 42.6136 105.673 42.6136C102.151 42.6136 98.9593 43.5038 96.0994 45.2841C93.2585 47.0644 90.9953 49.6875 89.3097 53.1534C87.643 56.6193 86.8097 60.8712 86.8097 65.9091C86.8097 70.947 87.643 75.1989 89.3097 78.6648C90.9953 82.1307 93.2585 84.7538 96.0994 86.5341C98.9593 88.3144 102.151 89.2045 105.673 89.2045C109.196 89.2045 112.378 88.3144 115.219 86.5341C118.079 84.7538 120.342 82.1307 122.009 78.6648C123.694 75.1989 124.537 70.947 124.537 65.9091ZM143.202 36.8182H151.611L171.384 85.1136H172.065L191.838 36.8182H200.247V95H193.656V50.7955H193.088L174.906 95H168.543L150.361 50.7955H149.793V95H143.202V36.8182ZM214.374 95V36.8182H249.487V43.0682H221.419V62.7273H247.669V68.9773H221.419V88.75H249.942V95H214.374Z" fill="#7B5B5B"/>
</svg>
