<svg width="458" height="193" viewBox="0 0 458 193" fill="none" xmlns="http://www.w3.org/2000/svg">
<g clip-path="url(#clip0_1_2)">
<path d="M157.001 3L224 94.047H202.389L145.479 15.234L157.001 3ZM116.075 13.889L32.256 100.687H56.249L146.516 4.553L116.075 13.889ZM197.302 98.407V137.293C162.864 137.474 123.194 140.567 90.942 152.33V104.002C90.942 102.269 89.355 100.687 87.617 100.687H65.283L140.9 20.108L197.302 98.407ZM167.396 67.501C167.396 65.764 165.804 64.182 164.066 64.182C152.802 64.182 141.411 64.182 130.202 64.182C128.685 64.478 127.474 65.953 127.502 67.501V113.961C127.502 115.694 129.093 117.276 130.831 117.276H164.066C165.804 117.276 167.396 115.694 167.396 113.961V67.501ZM134.148 87.412H144.127V70.821H134.148V87.412ZM150.77 87.412H160.739V70.821H150.77V87.412ZM134.148 110.644H144.127V94.047H134.148V110.644ZM150.77 110.644H160.739V94.047H150.77V110.644ZM61.025 141.542L84.292 151.813V107.322H61.025V141.542Z" fill="black"/>
<path d="M215.372 148.797C141.872 144.46 91.49 162.892 31.733 189.662L4 164.879C19.929 158.461 39.853 150.314 57.288 147.244L86.266 160.106C87.085 160.449 88.047 160.449 88.865 160.106C121.361 147.131 164.269 143.822 200.632 143.822C200.631 143.785 210.702 146.966 215.372 148.797Z" fill="black"/>
</g>
<path d="M219.045 160V101.818H226.091V127.727H257.114V101.818H264.159V160H257.114V133.977H226.091V160H219.045ZM327.355 130.909C327.355 137.045 326.247 142.348 324.031 146.818C321.815 151.288 318.776 154.735 314.912 157.159C311.048 159.583 306.635 160.795 301.673 160.795C296.711 160.795 292.298 159.583 288.435 157.159C284.571 154.735 281.531 151.288 279.315 146.818C277.099 142.348 275.991 137.045 275.991 130.909C275.991 124.773 277.099 119.47 279.315 115C281.531 110.53 284.571 107.083 288.435 104.659C292.298 102.235 296.711 101.023 301.673 101.023C306.635 101.023 311.048 102.235 314.912 104.659C318.776 107.083 321.815 110.53 324.031 115C326.247 119.47 327.355 124.773 327.355 130.909ZM320.537 130.909C320.537 125.871 319.694 121.619 318.009 118.153C316.342 114.688 314.079 112.064 311.219 110.284C308.378 108.504 305.196 107.614 301.673 107.614C298.151 107.614 294.959 108.504 292.099 110.284C289.259 112.064 286.995 114.688 285.31 118.153C283.643 121.619 282.81 125.871 282.81 130.909C282.81 135.947 283.643 140.199 285.31 143.665C286.995 147.131 289.259 149.754 292.099 151.534C294.959 153.314 298.151 154.205 301.673 154.205C305.196 154.205 308.378 153.314 311.219 151.534C314.079 149.754 316.342 147.131 318.009 143.665C319.694 140.199 320.537 135.947 320.537 130.909ZM339.202 101.818H347.611L367.384 150.114H368.065L387.838 101.818H396.247V160H389.656V115.795H389.088L370.906 160H364.543L346.361 115.795H345.793V160H339.202V101.818ZM410.374 160V101.818H445.487V108.068H417.419V127.727H443.669V133.977H417.419V153.75H445.942V160H410.374Z" fill="black"/>
<defs>
<clipPath id="clip0_1_2">
<rect width="220" height="186.662" fill="white" transform="translate(4 3)"/>
</clipPath>
</defs>
</svg>
